<mxfile host="app.diagrams.net" modified="2020-03-16T17:37:28.193Z" agent="Mozilla/5.0 (Windows NT 10.0; Win64; x64) AppleWebKit/537.36 (KHTML, like Gecko) Chrome/80.0.3987.132 Safari/537.36" etag="6ohcOAjodZjflDjWOq6L" version="12.8.5" type="github">
  <diagram id="onXOXerRqufiH0W-Qd_v" name="Page-1">
    <mxGraphModel dx="1270" dy="650" grid="1" gridSize="10" guides="1" tooltips="1" connect="1" arrows="1" fold="1" page="1" pageScale="1" pageWidth="1169" pageHeight="827" math="0" shadow="0">
      <root>
        <mxCell id="0" />
        <mxCell id="1" parent="0" />
        <mxCell id="_6644MWAA0ag8KBXNO5V-1" value="" style="rounded=1;whiteSpace=wrap;html=1;fontSize=10;align=center;fillColor=none;" parent="1" vertex="1">
          <mxGeometry x="54" y="210" width="1060" height="930" as="geometry" />
        </mxCell>
        <mxCell id="_6644MWAA0ag8KBXNO5V-5" value="Browser&lt;br&gt;logic.js" style="shape=umlLifeline;perimeter=lifelinePerimeter;whiteSpace=wrap;html=1;container=1;collapsible=0;recursiveResize=0;outlineConnect=0;rounded=0;shadow=0;comic=0;labelBackgroundColor=none;strokeWidth=1;fontFamily=Verdana;fontSize=10;align=center;strokeColor=#6c8ebf;fillColor=#dae8fc;size=30;fontStyle=1;" parent="1" vertex="1">
          <mxGeometry x="314" y="100" width="100" height="1000" as="geometry" />
        </mxCell>
        <mxCell id="_6644MWAA0ag8KBXNO5V-6" value="" style="html=1;points=[];perimeter=orthogonalPerimeter;rounded=1;shadow=0;comic=0;labelBackgroundColor=none;strokeWidth=1;fontFamily=Verdana;fontSize=8;align=center;arcSize=30;fillColor=#CCCCCC;strokeColor=none;" parent="_6644MWAA0ag8KBXNO5V-5" vertex="1">
          <mxGeometry x="40" y="150" width="20" height="50" as="geometry" />
        </mxCell>
        <mxCell id="_6644MWAA0ag8KBXNO5V-72" value="" style="html=1;points=[];perimeter=orthogonalPerimeter;rounded=1;shadow=0;comic=0;labelBackgroundColor=none;strokeWidth=1;fontFamily=Verdana;fontSize=8;align=center;arcSize=30;fillColor=#CCCCCC;strokeColor=none;" parent="_6644MWAA0ag8KBXNO5V-5" vertex="1">
          <mxGeometry x="40" y="260" width="20" height="120" as="geometry" />
        </mxCell>
        <mxCell id="_6644MWAA0ag8KBXNO5V-110" value="" style="html=1;points=[];perimeter=orthogonalPerimeter;rounded=1;shadow=0;comic=0;labelBackgroundColor=none;strokeWidth=1;fontFamily=Verdana;fontSize=8;align=center;arcSize=30;fillColor=#CCCCCC;strokeColor=none;" parent="_6644MWAA0ag8KBXNO5V-5" vertex="1">
          <mxGeometry x="40" y="651" width="20" height="140" as="geometry" />
        </mxCell>
        <mxCell id="_6644MWAA0ag8KBXNO5V-129" value="" style="html=1;points=[];perimeter=orthogonalPerimeter;rounded=1;shadow=0;comic=0;labelBackgroundColor=none;strokeWidth=1;fontFamily=Verdana;fontSize=8;align=center;arcSize=30;fillColor=#CCCCCC;strokeColor=none;" parent="_6644MWAA0ag8KBXNO5V-5" vertex="1">
          <mxGeometry x="40" y="831" width="20" height="140" as="geometry" />
        </mxCell>
        <mxCell id="_6644MWAA0ag8KBXNO5V-130" value="" style="endArrow=open;endFill=1;endSize=12;html=1;fontSize=10;" parent="_6644MWAA0ag8KBXNO5V-5" edge="1">
          <mxGeometry width="160" relative="1" as="geometry">
            <mxPoint x="-130.00000000000023" y="847" as="sourcePoint" />
            <mxPoint x="39.99999999999977" y="847" as="targetPoint" />
          </mxGeometry>
        </mxCell>
        <mxCell id="_6644MWAA0ag8KBXNO5V-131" value="&lt;h6&gt;&amp;nbsp;reembolsar&amp;nbsp;&lt;/h6&gt;" style="text;html=1;align=center;verticalAlign=middle;resizable=0;points=[];labelBackgroundColor=#ffffff;" parent="_6644MWAA0ag8KBXNO5V-130" vertex="1" connectable="0">
          <mxGeometry x="-0.1867" relative="1" as="geometry">
            <mxPoint as="offset" />
          </mxGeometry>
        </mxCell>
        <mxCell id="_6644MWAA0ag8KBXNO5V-132" style="edgeStyle=none;rounded=0;orthogonalLoop=1;jettySize=auto;html=1;dashed=1;endArrow=open;endFill=0;" parent="_6644MWAA0ag8KBXNO5V-5" edge="1">
          <mxGeometry relative="1" as="geometry">
            <mxPoint x="39.99999999999977" y="955" as="sourcePoint" />
            <mxPoint x="-130" y="955" as="targetPoint" />
          </mxGeometry>
        </mxCell>
        <mxCell id="_6644MWAA0ag8KBXNO5V-7" value="UniversityPlatform" style="shape=umlLifeline;perimeter=lifelinePerimeter;whiteSpace=wrap;html=1;container=1;collapsible=0;recursiveResize=0;outlineConnect=0;rounded=0;shadow=0;comic=0;labelBackgroundColor=none;strokeWidth=1;fontFamily=Verdana;fontSize=10;align=center;strokeColor=#6c8ebf;fillColor=#dae8fc;size=30;fontStyle=1;" parent="1" vertex="1">
          <mxGeometry x="474" y="100" width="115" height="1000" as="geometry" />
        </mxCell>
        <mxCell id="_6644MWAA0ag8KBXNO5V-30" value="0xA0...2" style="shape=note;whiteSpace=wrap;html=1;size=14;verticalAlign=middle;align=center;spacingTop=-6;rounded=0;shadow=0;comic=0;labelBackgroundColor=none;strokeWidth=1;fontFamily=Verdana;fontSize=10;fillColor=#ffe6cc;strokeColor=#d79b00;" parent="_6644MWAA0ag8KBXNO5V-7" vertex="1">
          <mxGeometry x="14.5" y="55" width="80" height="25" as="geometry" />
        </mxCell>
        <mxCell id="_6644MWAA0ag8KBXNO5V-11" value="" style="html=1;points=[];perimeter=orthogonalPerimeter;rounded=1;shadow=0;comic=0;labelBackgroundColor=none;strokeWidth=1;fontFamily=Verdana;fontSize=8;align=center;arcSize=30;fillColor=#CCCCCC;strokeColor=none;" parent="_6644MWAA0ag8KBXNO5V-7" vertex="1">
          <mxGeometry x="47.5" y="260" width="20" height="120" as="geometry" />
        </mxCell>
        <mxCell id="_6644MWAA0ag8KBXNO5V-9" value="University" style="shape=umlLifeline;perimeter=lifelinePerimeter;whiteSpace=wrap;html=1;container=1;collapsible=0;recursiveResize=0;outlineConnect=0;rounded=0;shadow=0;comic=0;labelBackgroundColor=none;strokeWidth=1;fontFamily=Verdana;fontSize=10;align=center;fontStyle=1;strokeColor=#6c8ebf;fillColor=#dae8fc;size=30;" parent="1" vertex="1">
          <mxGeometry x="614" y="100" width="100" height="1000" as="geometry" />
        </mxCell>
        <mxCell id="_6644MWAA0ag8KBXNO5V-15" value="" style="html=1;points=[];perimeter=orthogonalPerimeter;rounded=1;shadow=0;comic=0;labelBackgroundColor=none;strokeWidth=1;fontFamily=Verdana;fontSize=8;align=center;arcSize=30;fillColor=#CCCCCC;strokeColor=none;" parent="_6644MWAA0ag8KBXNO5V-9" vertex="1">
          <mxGeometry x="40" y="531" width="20" height="50" as="geometry" />
        </mxCell>
        <mxCell id="_6644MWAA0ag8KBXNO5V-8" value="" style="html=1;points=[];perimeter=orthogonalPerimeter;rounded=1;shadow=0;comic=0;labelBackgroundColor=none;strokeWidth=1;fontFamily=Verdana;fontSize=8;align=center;arcSize=30;fillColor=#CCCCCC;strokeColor=none;" parent="_6644MWAA0ag8KBXNO5V-9" vertex="1">
          <mxGeometry x="40" y="651" width="20" height="60" as="geometry" />
        </mxCell>
        <mxCell id="_6644MWAA0ag8KBXNO5V-12" value="Student" style="shape=umlLifeline;perimeter=lifelinePerimeter;whiteSpace=wrap;html=1;container=1;collapsible=0;recursiveResize=0;outlineConnect=0;rounded=0;shadow=0;comic=0;labelBackgroundColor=none;strokeWidth=1;fontFamily=Verdana;fontSize=10;align=center;size=30;fontStyle=1;strokeColor=#6c8ebf;fillColor=#dae8fc;" parent="1" vertex="1">
          <mxGeometry x="734" y="100" width="100" height="1000" as="geometry" />
        </mxCell>
        <mxCell id="_6644MWAA0ag8KBXNO5V-32" value="0xC0...1" style="shape=note;whiteSpace=wrap;html=1;size=14;verticalAlign=middle;align=center;spacingTop=-6;rounded=0;shadow=0;comic=0;labelBackgroundColor=none;strokeWidth=1;fontFamily=Verdana;fontSize=10;fillColor=#ffe6cc;strokeColor=#d79b00;" parent="_6644MWAA0ag8KBXNO5V-12" vertex="1">
          <mxGeometry x="10" y="55" width="80" height="25" as="geometry" />
        </mxCell>
        <mxCell id="_6644MWAA0ag8KBXNO5V-16" value="" style="html=1;points=[];perimeter=orthogonalPerimeter;rounded=1;shadow=0;comic=0;labelBackgroundColor=none;strokeWidth=1;fontFamily=Verdana;fontSize=8;align=center;arcSize=30;fillColor=#CCCCCC;strokeColor=none;" parent="_6644MWAA0ag8KBXNO5V-12" vertex="1">
          <mxGeometry x="40" y="511" width="20" height="100" as="geometry" />
        </mxCell>
        <mxCell id="_6644MWAA0ag8KBXNO5V-111" value="" style="html=1;points=[];perimeter=orthogonalPerimeter;rounded=1;shadow=0;comic=0;labelBackgroundColor=none;strokeWidth=1;fontFamily=Verdana;fontSize=8;align=center;arcSize=30;fillColor=#CCCCCC;strokeColor=none;" parent="_6644MWAA0ag8KBXNO5V-12" vertex="1">
          <mxGeometry x="40" y="711" width="20" height="70" as="geometry" />
        </mxCell>
        <mxCell id="_6644MWAA0ag8KBXNO5V-13" value="ECTSToken" style="shape=umlLifeline;perimeter=lifelinePerimeter;whiteSpace=wrap;html=1;container=1;collapsible=0;recursiveResize=0;outlineConnect=0;rounded=0;shadow=0;comic=0;labelBackgroundColor=none;strokeWidth=1;fontFamily=Verdana;fontSize=10;align=center;size=30;fontStyle=1;strokeColor=#6c8ebf;fillColor=#dae8fc;" parent="1" vertex="1">
          <mxGeometry x="854" y="100" width="100" height="1000" as="geometry" />
        </mxCell>
        <mxCell id="_6644MWAA0ag8KBXNO5V-14" value="0xC0...2" style="shape=note;whiteSpace=wrap;html=1;size=14;verticalAlign=middle;align=center;spacingTop=-6;rounded=0;shadow=0;comic=0;labelBackgroundColor=none;strokeWidth=1;fontFamily=Verdana;fontSize=10;fillColor=#ffe6cc;strokeColor=#d79b00;" parent="_6644MWAA0ag8KBXNO5V-13" vertex="1">
          <mxGeometry x="10" y="55" width="80" height="25" as="geometry" />
        </mxCell>
        <mxCell id="_6644MWAA0ag8KBXNO5V-21" value="" style="html=1;points=[];perimeter=orthogonalPerimeter;rounded=1;shadow=0;comic=0;labelBackgroundColor=none;strokeWidth=1;fontFamily=Verdana;fontSize=8;align=center;arcSize=30;fillColor=#CCCCCC;strokeColor=none;" parent="_6644MWAA0ag8KBXNO5V-13" vertex="1">
          <mxGeometry x="40" y="451" width="20" height="60" as="geometry" />
        </mxCell>
        <mxCell id="_6644MWAA0ag8KBXNO5V-133" value="" style="html=1;points=[];perimeter=orthogonalPerimeter;rounded=1;shadow=0;comic=0;labelBackgroundColor=none;strokeWidth=1;fontFamily=Verdana;fontSize=8;align=center;arcSize=30;fillColor=#CCCCCC;strokeColor=none;" parent="_6644MWAA0ag8KBXNO5V-13" vertex="1">
          <mxGeometry x="40" y="831" width="20" height="60" as="geometry" />
        </mxCell>
        <mxCell id="_6644MWAA0ag8KBXNO5V-19" value="SubjectToken" style="shape=umlLifeline;perimeter=lifelinePerimeter;whiteSpace=wrap;html=1;container=1;collapsible=0;recursiveResize=0;outlineConnect=0;rounded=0;shadow=0;comic=0;labelBackgroundColor=none;strokeWidth=1;fontFamily=Verdana;fontSize=10;align=center;size=30;fontStyle=1;strokeColor=#6c8ebf;fillColor=#dae8fc;" parent="1" vertex="1">
          <mxGeometry x="974" y="100" width="100" height="1000" as="geometry" />
        </mxCell>
        <mxCell id="_6644MWAA0ag8KBXNO5V-20" value="0xC0...3" style="shape=note;whiteSpace=wrap;html=1;size=14;verticalAlign=middle;align=center;spacingTop=-6;rounded=0;shadow=0;comic=0;labelBackgroundColor=none;strokeWidth=1;fontFamily=Verdana;fontSize=10;fillColor=#ffe6cc;strokeColor=#d79b00;" parent="_6644MWAA0ag8KBXNO5V-19" vertex="1">
          <mxGeometry x="10" y="55" width="80" height="25" as="geometry" />
        </mxCell>
        <mxCell id="_6644MWAA0ag8KBXNO5V-112" value="" style="html=1;points=[];perimeter=orthogonalPerimeter;rounded=1;shadow=0;comic=0;labelBackgroundColor=none;strokeWidth=1;fontFamily=Verdana;fontSize=8;align=center;arcSize=30;fillColor=#CCCCCC;strokeColor=none;" parent="_6644MWAA0ag8KBXNO5V-19" vertex="1">
          <mxGeometry x="40" y="651" width="20" height="60" as="geometry" />
        </mxCell>
        <mxCell id="_6644MWAA0ag8KBXNO5V-25" value="" style="html=1;verticalAlign=bottom;endArrow=open;dashed=1;endSize=8;labelBackgroundColor=none;fontFamily=Verdana;fontSize=8;edgeStyle=elbowEdgeStyle;elbow=vertical;" parent="1" source="_6644MWAA0ag8KBXNO5V-6" edge="1">
          <mxGeometry relative="1" as="geometry">
            <mxPoint x="184" y="290" as="targetPoint" />
            <Array as="points">
              <mxPoint x="259" y="290" />
              <mxPoint x="289" y="290" />
            </Array>
            <mxPoint x="314" y="290" as="sourcePoint" />
          </mxGeometry>
        </mxCell>
        <mxCell id="_6644MWAA0ag8KBXNO5V-26" value="&lt;font color=&quot;#595959&quot;&gt;Diagrama de Secuencia&lt;/font&gt;" style="text;strokeColor=none;fillColor=none;html=1;fontSize=18;fontStyle=1;verticalAlign=middle;align=center;" parent="1" vertex="1">
          <mxGeometry x="534" y="10" width="100" height="40" as="geometry" />
        </mxCell>
        <mxCell id="_6644MWAA0ag8KBXNO5V-27" value="" style="endArrow=none;html=1;fontSize=18;" parent="1" edge="1">
          <mxGeometry width="50" height="50" relative="1" as="geometry">
            <mxPoint x="370" y="45" as="sourcePoint" />
            <mxPoint x="800" y="47" as="targetPoint" />
          </mxGeometry>
        </mxCell>
        <mxCell id="_6644MWAA0ag8KBXNO5V-28" value="&lt;font color=&quot;#666666&quot; style=&quot;font-size: 12px&quot;&gt;José Pastor&amp;nbsp; &amp;nbsp; |&amp;nbsp; &amp;nbsp;UNIR - TFE&lt;/font&gt;" style="text;html=1;strokeColor=none;fillColor=none;align=center;verticalAlign=middle;whiteSpace=wrap;rounded=0;fontSize=18;" parent="1" vertex="1">
          <mxGeometry x="424" y="48" width="320" height="24" as="geometry" />
        </mxCell>
        <mxCell id="_6644MWAA0ag8KBXNO5V-29" value="" style="html=1;verticalAlign=bottom;endArrow=open;labelBackgroundColor=none;fontFamily=Verdana;fontSize=8;edgeStyle=elbowEdgeStyle;elbow=vertical;endFill=0;exitX=1;exitY=0.26;exitDx=0;exitDy=0;exitPerimeter=0;" parent="1" edge="1">
          <mxGeometry x="-0.0544" relative="1" as="geometry">
            <mxPoint x="543" y="267" as="sourcePoint" />
            <mxPoint x="543" y="267" as="targetPoint" />
            <Array as="points" />
            <mxPoint as="offset" />
          </mxGeometry>
        </mxCell>
        <mxCell id="_6644MWAA0ag8KBXNO5V-31" value="0xA0...3" style="shape=note;whiteSpace=wrap;html=1;size=14;verticalAlign=middle;align=center;spacingTop=-6;rounded=0;shadow=0;comic=0;labelBackgroundColor=none;strokeWidth=1;fontFamily=Verdana;fontSize=10;fillColor=#ffe6cc;strokeColor=#d79b00;" parent="1" vertex="1">
          <mxGeometry x="624" y="155" width="80" height="25" as="geometry" />
        </mxCell>
        <mxCell id="_6644MWAA0ag8KBXNO5V-34" value="" style="html=1;points=[];perimeter=orthogonalPerimeter;rounded=1;shadow=0;comic=0;labelBackgroundColor=none;strokeWidth=1;fontFamily=Verdana;fontSize=8;align=center;arcSize=30;fillColor=#CCCCCC;strokeColor=none;" parent="1" vertex="1">
          <mxGeometry x="1014" y="245" width="20" height="50" as="geometry" />
        </mxCell>
        <mxCell id="_6644MWAA0ag8KBXNO5V-35" value="" style="endArrow=open;endFill=1;endSize=12;html=1;fontSize=10;" parent="1" edge="1">
          <mxGeometry width="160" relative="1" as="geometry">
            <mxPoint x="184" y="258" as="sourcePoint" />
            <mxPoint x="354" y="258" as="targetPoint" />
          </mxGeometry>
        </mxCell>
        <mxCell id="_6644MWAA0ag8KBXNO5V-83" value="&lt;h6&gt;&amp;nbsp;publicarAsignatura&amp;nbsp;&lt;/h6&gt;" style="text;html=1;align=center;verticalAlign=middle;resizable=0;points=[];labelBackgroundColor=#ffffff;" parent="_6644MWAA0ag8KBXNO5V-35" vertex="1" connectable="0">
          <mxGeometry x="-0.2259" relative="1" as="geometry">
            <mxPoint as="offset" />
          </mxGeometry>
        </mxCell>
        <mxCell id="_6644MWAA0ag8KBXNO5V-57" value="University" style="shape=umlActor;verticalLabelPosition=bottom;labelBackgroundColor=#ffffff;verticalAlign=top;html=1;" parent="1" vertex="1">
          <mxGeometry x="134" y="245" width="30" height="60" as="geometry" />
        </mxCell>
        <mxCell id="_6644MWAA0ag8KBXNO5V-58" value="Student" style="shape=umlActor;verticalLabelPosition=bottom;labelBackgroundColor=#ffffff;verticalAlign=top;html=1;" parent="1" vertex="1">
          <mxGeometry x="134" y="390" width="30" height="60" as="geometry" />
        </mxCell>
        <mxCell id="_6644MWAA0ag8KBXNO5V-66" value="" style="endArrow=open;endFill=1;endSize=12;html=1;fontSize=10;" parent="1" edge="1">
          <mxGeometry width="160" relative="1" as="geometry">
            <mxPoint x="374" y="258" as="sourcePoint" />
            <mxPoint x="1014" y="258" as="targetPoint" />
          </mxGeometry>
        </mxCell>
        <mxCell id="_6644MWAA0ag8KBXNO5V-82" value="&lt;h6&gt;&amp;nbsp;deployContract&amp;nbsp;&lt;/h6&gt;" style="text;html=1;align=center;verticalAlign=middle;resizable=0;points=[];labelBackgroundColor=#ffffff;" parent="_6644MWAA0ag8KBXNO5V-66" vertex="1" connectable="0">
          <mxGeometry x="-0.2111" relative="1" as="geometry">
            <mxPoint as="offset" />
          </mxGeometry>
        </mxCell>
        <mxCell id="_6644MWAA0ag8KBXNO5V-70" value="" style="html=1;verticalAlign=bottom;endArrow=open;dashed=1;endSize=8;labelBackgroundColor=none;fontFamily=Verdana;fontSize=8;edgeStyle=elbowEdgeStyle;elbow=vertical;" parent="1" edge="1">
          <mxGeometry relative="1" as="geometry">
            <mxPoint x="374" y="287" as="targetPoint" />
            <Array as="points">
              <mxPoint x="759" y="287" />
              <mxPoint x="789" y="287" />
            </Array>
            <mxPoint x="1014" y="286.9999999999999" as="sourcePoint" />
          </mxGeometry>
        </mxCell>
        <mxCell id="_6644MWAA0ag8KBXNO5V-73" value="" style="endArrow=open;endFill=1;endSize=12;html=1;fontSize=10;" parent="1" edge="1">
          <mxGeometry width="160" relative="1" as="geometry">
            <mxPoint x="184" y="370" as="sourcePoint" />
            <mxPoint x="354" y="370" as="targetPoint" />
          </mxGeometry>
        </mxCell>
        <mxCell id="_6644MWAA0ag8KBXNO5V-80" value="&lt;h6&gt;&amp;nbsp;buyECTSToken&amp;nbsp;&lt;/h6&gt;" style="text;html=1;align=center;verticalAlign=middle;resizable=0;points=[];labelBackgroundColor=#ffffff;" parent="_6644MWAA0ag8KBXNO5V-73" vertex="1" connectable="0">
          <mxGeometry x="-0.1867" relative="1" as="geometry">
            <mxPoint as="offset" />
          </mxGeometry>
        </mxCell>
        <mxCell id="_6644MWAA0ag8KBXNO5V-75" value="" style="endArrow=open;endFill=1;endSize=12;html=1;fontSize=10;" parent="1" source="_6644MWAA0ag8KBXNO5V-72" edge="1">
          <mxGeometry width="160" relative="1" as="geometry">
            <mxPoint x="434" y="369.17" as="sourcePoint" />
            <mxPoint x="524" y="369" as="targetPoint" />
          </mxGeometry>
        </mxCell>
        <mxCell id="_6644MWAA0ag8KBXNO5V-79" value="&lt;h6&gt;&amp;nbsp;buyTokens()&amp;nbsp;&lt;/h6&gt;" style="text;html=1;align=center;verticalAlign=middle;resizable=0;points=[];labelBackgroundColor=#ffffff;" parent="_6644MWAA0ag8KBXNO5V-75" vertex="1" connectable="0">
          <mxGeometry x="-0.1672" y="1" relative="1" as="geometry">
            <mxPoint as="offset" />
          </mxGeometry>
        </mxCell>
        <mxCell id="_6644MWAA0ag8KBXNO5V-85" style="edgeStyle=none;rounded=0;orthogonalLoop=1;jettySize=auto;html=1;dashed=1;endArrow=open;endFill=0;" parent="1" edge="1">
          <mxGeometry relative="1" as="geometry">
            <mxPoint x="521.5" y="470" as="sourcePoint" />
            <mxPoint x="374" y="470" as="targetPoint" />
          </mxGeometry>
        </mxCell>
        <mxCell id="_6644MWAA0ag8KBXNO5V-87" value="Student" style="shape=umlActor;verticalLabelPosition=bottom;labelBackgroundColor=#ffffff;verticalAlign=top;html=1;" parent="1" vertex="1">
          <mxGeometry x="134" y="591" width="30" height="60" as="geometry" />
        </mxCell>
        <mxCell id="_6644MWAA0ag8KBXNO5V-108" style="edgeStyle=none;rounded=0;orthogonalLoop=1;jettySize=auto;html=1;dashed=1;endArrow=open;endFill=0;" parent="1" edge="1">
          <mxGeometry relative="1" as="geometry">
            <mxPoint x="353.9999999999998" y="694" as="sourcePoint" />
            <mxPoint x="174" y="694" as="targetPoint" />
          </mxGeometry>
        </mxCell>
        <mxCell id="_6644MWAA0ag8KBXNO5V-88" value="" style="html=1;points=[];perimeter=orthogonalPerimeter;rounded=1;shadow=0;comic=0;labelBackgroundColor=none;strokeWidth=1;fontFamily=Verdana;fontSize=8;align=center;arcSize=30;fillColor=#CCCCCC;strokeColor=none;" parent="1" vertex="1">
          <mxGeometry x="354" y="546" width="20" height="165" as="geometry" />
        </mxCell>
        <mxCell id="_6644MWAA0ag8KBXNO5V-89" value="" style="endArrow=open;endFill=1;endSize=12;html=1;fontSize=10;" parent="1" edge="1">
          <mxGeometry width="160" relative="1" as="geometry">
            <mxPoint x="184" y="561" as="sourcePoint" />
            <mxPoint x="354" y="561" as="targetPoint" />
          </mxGeometry>
        </mxCell>
        <mxCell id="_6644MWAA0ag8KBXNO5V-90" value="&lt;h6&gt;&amp;nbsp;depositarECTSToken&amp;nbsp;&lt;/h6&gt;" style="text;html=1;align=center;verticalAlign=middle;resizable=0;points=[];labelBackgroundColor=#ffffff;" parent="_6644MWAA0ag8KBXNO5V-89" vertex="1" connectable="0">
          <mxGeometry x="-0.1867" relative="1" as="geometry">
            <mxPoint as="offset" />
          </mxGeometry>
        </mxCell>
        <mxCell id="_6644MWAA0ag8KBXNO5V-17" value="" style="endArrow=open;endFill=1;endSize=12;html=1;fontSize=10;" parent="1" target="_6644MWAA0ag8KBXNO5V-21" edge="1">
          <mxGeometry width="160" relative="1" as="geometry">
            <mxPoint x="374" y="561" as="sourcePoint" />
            <mxPoint x="779" y="561" as="targetPoint" />
          </mxGeometry>
        </mxCell>
        <mxCell id="_6644MWAA0ag8KBXNO5V-91" value="&lt;h6&gt;&amp;nbsp;approve()&amp;nbsp;&lt;/h6&gt;" style="text;html=1;align=center;verticalAlign=middle;resizable=0;points=[];labelBackgroundColor=#ffffff;" parent="_6644MWAA0ag8KBXNO5V-17" vertex="1" connectable="0">
          <mxGeometry x="-0.1572" y="1" relative="1" as="geometry">
            <mxPoint as="offset" />
          </mxGeometry>
        </mxCell>
        <mxCell id="_6644MWAA0ag8KBXNO5V-92" style="edgeStyle=none;rounded=0;orthogonalLoop=1;jettySize=auto;html=1;dashed=1;endArrow=open;endFill=0;exitX=-0.027;exitY=0.64;exitDx=0;exitDy=0;exitPerimeter=0;" parent="1" source="_6644MWAA0ag8KBXNO5V-21" edge="1">
          <mxGeometry relative="1" as="geometry">
            <mxPoint x="521.5" y="591" as="sourcePoint" />
            <mxPoint x="374" y="591" as="targetPoint" />
          </mxGeometry>
        </mxCell>
        <mxCell id="_6644MWAA0ag8KBXNO5V-93" value="" style="endArrow=open;endFill=1;endSize=12;html=1;fontSize=10;" parent="1" target="_6644MWAA0ag8KBXNO5V-16" edge="1">
          <mxGeometry width="160" relative="1" as="geometry">
            <mxPoint x="374" y="621" as="sourcePoint" />
            <mxPoint x="724" y="621" as="targetPoint" />
          </mxGeometry>
        </mxCell>
        <mxCell id="_6644MWAA0ag8KBXNO5V-94" value="&lt;h6&gt;&amp;nbsp;addDeposti()&lt;/h6&gt;" style="text;html=1;align=center;verticalAlign=middle;resizable=0;points=[];labelBackgroundColor=#ffffff;" parent="_6644MWAA0ag8KBXNO5V-93" vertex="1" connectable="0">
          <mxGeometry x="-0.1572" y="1" relative="1" as="geometry">
            <mxPoint as="offset" />
          </mxGeometry>
        </mxCell>
        <mxCell id="_6644MWAA0ag8KBXNO5V-100" value="&lt;h6&gt;&amp;nbsp;makeAnIncome&amp;nbsp;&lt;/h6&gt;" style="edgeStyle=none;rounded=0;orthogonalLoop=1;jettySize=auto;html=1;endArrow=open;endFill=0;" parent="1" edge="1">
          <mxGeometry relative="1" as="geometry">
            <mxPoint x="774" y="646" as="sourcePoint" />
            <mxPoint x="674" y="646" as="targetPoint" />
          </mxGeometry>
        </mxCell>
        <mxCell id="_6644MWAA0ag8KBXNO5V-104" value="" style="edgeStyle=none;rounded=0;orthogonalLoop=1;jettySize=auto;html=1;endArrow=open;endFill=0;entryX=-0.018;entryY=0.555;entryDx=0;entryDy=0;entryPerimeter=0;dashed=1;" parent="1" source="_6644MWAA0ag8KBXNO5V-15" target="_6644MWAA0ag8KBXNO5V-16" edge="1">
          <mxGeometry relative="1" as="geometry" />
        </mxCell>
        <mxCell id="_6644MWAA0ag8KBXNO5V-105" value="" style="edgeStyle=none;rounded=0;orthogonalLoop=1;jettySize=auto;html=1;dashed=1;endArrow=open;endFill=0;" parent="1" edge="1">
          <mxGeometry relative="1" as="geometry">
            <mxPoint x="774" y="694" as="sourcePoint" />
            <mxPoint x="374" y="694" as="targetPoint" />
            <Array as="points">
              <mxPoint x="684" y="694" />
            </Array>
          </mxGeometry>
        </mxCell>
        <mxCell id="_6644MWAA0ag8KBXNO5V-109" value="Student" style="shape=umlActor;verticalLabelPosition=bottom;labelBackgroundColor=#ffffff;verticalAlign=top;html=1;" parent="1" vertex="1">
          <mxGeometry x="134" y="781" width="30" height="60" as="geometry" />
        </mxCell>
        <mxCell id="_6644MWAA0ag8KBXNO5V-113" value="" style="endArrow=open;endFill=1;endSize=12;html=1;fontSize=10;" parent="1" edge="1">
          <mxGeometry width="160" relative="1" as="geometry">
            <mxPoint x="183.99999999999977" y="767" as="sourcePoint" />
            <mxPoint x="353.9999999999998" y="767" as="targetPoint" />
          </mxGeometry>
        </mxCell>
        <mxCell id="_6644MWAA0ag8KBXNO5V-114" value="&lt;h6&gt;&amp;nbsp;matricularEnAsignatura&amp;nbsp;&lt;/h6&gt;" style="text;html=1;align=center;verticalAlign=middle;resizable=0;points=[];labelBackgroundColor=#ffffff;" parent="_6644MWAA0ag8KBXNO5V-113" vertex="1" connectable="0">
          <mxGeometry x="-0.1867" relative="1" as="geometry">
            <mxPoint as="offset" />
          </mxGeometry>
        </mxCell>
        <mxCell id="_6644MWAA0ag8KBXNO5V-115" value="" style="endArrow=open;endFill=1;endSize=12;html=1;fontSize=10;" parent="1" edge="1">
          <mxGeometry width="160" relative="1" as="geometry">
            <mxPoint x="373.9999999999998" y="766" as="sourcePoint" />
            <mxPoint x="654" y="766" as="targetPoint" />
          </mxGeometry>
        </mxCell>
        <mxCell id="_6644MWAA0ag8KBXNO5V-116" value="&lt;h6&gt;&amp;nbsp;enrollInSubject&amp;nbsp;&lt;/h6&gt;" style="text;html=1;align=center;verticalAlign=middle;resizable=0;points=[];labelBackgroundColor=#ffffff;" parent="_6644MWAA0ag8KBXNO5V-115" vertex="1" connectable="0">
          <mxGeometry x="-0.1867" relative="1" as="geometry">
            <mxPoint as="offset" />
          </mxGeometry>
        </mxCell>
        <mxCell id="_6644MWAA0ag8KBXNO5V-117" value="" style="endArrow=open;endFill=1;endSize=12;html=1;fontSize=10;exitX=1.073;exitY=0.141;exitDx=0;exitDy=0;exitPerimeter=0;" parent="1" edge="1">
          <mxGeometry width="160" relative="1" as="geometry">
            <mxPoint x="675.46" y="766.46" as="sourcePoint" />
            <mxPoint x="1014" y="766.46" as="targetPoint" />
          </mxGeometry>
        </mxCell>
        <mxCell id="_6644MWAA0ag8KBXNO5V-118" value="&lt;h6&gt;&amp;nbsp;transferFrom&amp;nbsp;&lt;/h6&gt;" style="text;html=1;align=center;verticalAlign=middle;resizable=0;points=[];labelBackgroundColor=#ffffff;" parent="_6644MWAA0ag8KBXNO5V-117" vertex="1" connectable="0">
          <mxGeometry x="-0.1867" relative="1" as="geometry">
            <mxPoint as="offset" />
          </mxGeometry>
        </mxCell>
        <mxCell id="_6644MWAA0ag8KBXNO5V-120" value="" style="edgeStyle=none;rounded=0;orthogonalLoop=1;jettySize=auto;html=1;dashed=1;endArrow=open;endFill=0;" parent="1" source="_6644MWAA0ag8KBXNO5V-112" target="_6644MWAA0ag8KBXNO5V-8" edge="1">
          <mxGeometry relative="1" as="geometry">
            <mxPoint x="994" y="795.5" as="sourcePoint" />
            <mxPoint x="594" y="795.5" as="targetPoint" />
            <Array as="points">
              <mxPoint x="904" y="795.5" />
            </Array>
          </mxGeometry>
        </mxCell>
        <mxCell id="_6644MWAA0ag8KBXNO5V-121" value="" style="edgeStyle=none;rounded=0;orthogonalLoop=1;jettySize=auto;html=1;dashed=1;endArrow=open;endFill=0;" parent="1" edge="1">
          <mxGeometry relative="1" as="geometry">
            <mxPoint x="654" y="797" as="sourcePoint" />
            <mxPoint x="374" y="797" as="targetPoint" />
            <Array as="points">
              <mxPoint x="524" y="797" />
            </Array>
          </mxGeometry>
        </mxCell>
        <mxCell id="_6644MWAA0ag8KBXNO5V-123" value="" style="endArrow=open;endFill=1;endSize=12;html=1;fontSize=10;" parent="1" target="_6644MWAA0ag8KBXNO5V-111" edge="1">
          <mxGeometry width="160" relative="1" as="geometry">
            <mxPoint x="373.9999999999998" y="831" as="sourcePoint" />
            <mxPoint x="654" y="831" as="targetPoint" />
          </mxGeometry>
        </mxCell>
        <mxCell id="_6644MWAA0ag8KBXNO5V-124" value="&lt;h6&gt;&amp;nbsp;recordEnrollInSubject&amp;nbsp;&lt;/h6&gt;" style="text;html=1;align=center;verticalAlign=middle;resizable=0;points=[];labelBackgroundColor=#ffffff;" parent="_6644MWAA0ag8KBXNO5V-123" vertex="1" connectable="0">
          <mxGeometry x="-0.1867" relative="1" as="geometry">
            <mxPoint as="offset" />
          </mxGeometry>
        </mxCell>
        <mxCell id="_6644MWAA0ag8KBXNO5V-125" value="" style="edgeStyle=none;rounded=0;orthogonalLoop=1;jettySize=auto;html=1;dashed=1;endArrow=open;endFill=0;" parent="1" source="_6644MWAA0ag8KBXNO5V-111" target="_6644MWAA0ag8KBXNO5V-110" edge="1">
          <mxGeometry relative="1" as="geometry">
            <mxPoint x="768" y="860" as="sourcePoint" />
            <mxPoint x="488" y="860" as="targetPoint" />
            <Array as="points">
              <mxPoint x="638" y="860" />
            </Array>
          </mxGeometry>
        </mxCell>
        <mxCell id="_6644MWAA0ag8KBXNO5V-127" style="edgeStyle=none;rounded=0;orthogonalLoop=1;jettySize=auto;html=1;dashed=1;endArrow=open;endFill=0;" parent="1" edge="1">
          <mxGeometry relative="1" as="geometry">
            <mxPoint x="353.9999999999998" y="861" as="sourcePoint" />
            <mxPoint x="184" y="861" as="targetPoint" />
          </mxGeometry>
        </mxCell>
        <mxCell id="_6644MWAA0ag8KBXNO5V-128" value="University" style="shape=umlActor;verticalLabelPosition=bottom;labelBackgroundColor=#ffffff;verticalAlign=top;html=1;" parent="1" vertex="1">
          <mxGeometry x="134" y="961" width="30" height="60" as="geometry" />
        </mxCell>
        <mxCell id="_6644MWAA0ag8KBXNO5V-134" value="" style="endArrow=open;endFill=1;endSize=12;html=1;fontSize=10;" parent="1" target="_6644MWAA0ag8KBXNO5V-133" edge="1">
          <mxGeometry width="160" relative="1" as="geometry">
            <mxPoint x="374" y="947" as="sourcePoint" />
            <mxPoint x="1014" y="947" as="targetPoint" />
          </mxGeometry>
        </mxCell>
        <mxCell id="_6644MWAA0ag8KBXNO5V-135" value="&lt;h6&gt;&amp;nbsp;approve()&amp;nbsp;&lt;/h6&gt;" style="text;html=1;align=center;verticalAlign=middle;resizable=0;points=[];labelBackgroundColor=#ffffff;" parent="_6644MWAA0ag8KBXNO5V-134" vertex="1" connectable="0">
          <mxGeometry x="-0.1572" y="1" relative="1" as="geometry">
            <mxPoint as="offset" />
          </mxGeometry>
        </mxCell>
        <mxCell id="_6644MWAA0ag8KBXNO5V-136" value="" style="edgeStyle=none;rounded=0;orthogonalLoop=1;jettySize=auto;html=1;dashed=1;endArrow=open;endFill=0;" parent="1" source="_6644MWAA0ag8KBXNO5V-133" target="_6644MWAA0ag8KBXNO5V-129" edge="1">
          <mxGeometry relative="1" as="geometry">
            <mxPoint x="1004" y="981" as="sourcePoint" />
            <mxPoint x="604" y="981" as="targetPoint" />
            <Array as="points">
              <mxPoint x="868" y="981" />
            </Array>
          </mxGeometry>
        </mxCell>
        <mxCell id="_6644MWAA0ag8KBXNO5V-137" value="" style="html=1;points=[];perimeter=orthogonalPerimeter;rounded=1;shadow=0;comic=0;labelBackgroundColor=none;strokeWidth=1;fontFamily=Verdana;fontSize=8;align=center;arcSize=30;fillColor=#CCCCCC;strokeColor=none;" parent="1" vertex="1">
          <mxGeometry x="521.5" y="1011" width="20" height="60" as="geometry" />
        </mxCell>
        <mxCell id="_6644MWAA0ag8KBXNO5V-138" value="" style="endArrow=open;endFill=1;endSize=12;html=1;fontSize=10;" parent="1" target="_6644MWAA0ag8KBXNO5V-137" edge="1">
          <mxGeometry width="160" relative="1" as="geometry">
            <mxPoint x="374" y="1022" as="sourcePoint" />
            <mxPoint x="521.5" y="1022" as="targetPoint" />
          </mxGeometry>
        </mxCell>
        <mxCell id="_6644MWAA0ag8KBXNO5V-139" value="&lt;h6&gt;&amp;nbsp;refundECTS&amp;nbsp;&lt;/h6&gt;" style="text;html=1;align=center;verticalAlign=middle;resizable=0;points=[];labelBackgroundColor=#ffffff;" parent="_6644MWAA0ag8KBXNO5V-138" vertex="1" connectable="0">
          <mxGeometry x="-0.1867" relative="1" as="geometry">
            <mxPoint as="offset" />
          </mxGeometry>
        </mxCell>
        <mxCell id="_6644MWAA0ag8KBXNO5V-140" value="" style="html=1;points=[];perimeter=orthogonalPerimeter;rounded=1;shadow=0;comic=0;labelBackgroundColor=none;strokeWidth=1;fontFamily=Verdana;fontSize=8;align=center;arcSize=30;fillColor=#CCCCCC;strokeColor=none;" parent="1" vertex="1">
          <mxGeometry x="894" y="360" width="20" height="120" as="geometry" />
        </mxCell>
        <mxCell id="_6644MWAA0ag8KBXNO5V-141" value="" style="endArrow=open;endFill=1;endSize=12;html=1;fontSize=10;" parent="1" edge="1">
          <mxGeometry width="160" relative="1" as="geometry">
            <mxPoint x="541.5" y="369" as="sourcePoint" />
            <mxPoint x="894" y="369" as="targetPoint" />
          </mxGeometry>
        </mxCell>
        <mxCell id="_6644MWAA0ag8KBXNO5V-142" value="&lt;h6&gt;&amp;nbsp;mint&amp;nbsp;&lt;/h6&gt;" style="text;html=1;align=center;verticalAlign=middle;resizable=0;points=[];labelBackgroundColor=#ffffff;" parent="_6644MWAA0ag8KBXNO5V-141" vertex="1" connectable="0">
          <mxGeometry x="-0.1672" y="1" relative="1" as="geometry">
            <mxPoint as="offset" />
          </mxGeometry>
        </mxCell>
        <mxCell id="_6644MWAA0ag8KBXNO5V-143" style="edgeStyle=none;rounded=0;orthogonalLoop=1;jettySize=auto;html=1;dashed=1;endArrow=open;endFill=0;" parent="1" edge="1">
          <mxGeometry relative="1" as="geometry">
            <mxPoint x="894" y="470" as="sourcePoint" />
            <mxPoint x="541.5" y="470" as="targetPoint" />
          </mxGeometry>
        </mxCell>
        <mxCell id="_6644MWAA0ag8KBXNO5V-146" value="" style="endArrow=open;endFill=1;endSize=12;html=1;fontSize=10;" parent="1" edge="1">
          <mxGeometry width="160" relative="1" as="geometry">
            <mxPoint x="541.5" y="439" as="sourcePoint" />
            <mxPoint x="894" y="439" as="targetPoint" />
          </mxGeometry>
        </mxCell>
        <mxCell id="_6644MWAA0ag8KBXNO5V-147" value="&lt;h6&gt;&amp;nbsp;transfer&amp;nbsp;&lt;/h6&gt;" style="text;html=1;align=center;verticalAlign=middle;resizable=0;points=[];labelBackgroundColor=#ffffff;" parent="_6644MWAA0ag8KBXNO5V-146" vertex="1" connectable="0">
          <mxGeometry x="-0.1672" y="1" relative="1" as="geometry">
            <mxPoint as="offset" />
          </mxGeometry>
        </mxCell>
        <mxCell id="_6644MWAA0ag8KBXNO5V-148" style="edgeStyle=none;rounded=0;orthogonalLoop=1;jettySize=auto;html=1;dashed=1;endArrow=open;endFill=0;" parent="1" edge="1">
          <mxGeometry relative="1" as="geometry">
            <mxPoint x="894" y="400" as="sourcePoint" />
            <mxPoint x="541.5" y="400" as="targetPoint" />
          </mxGeometry>
        </mxCell>
        <mxCell id="_6644MWAA0ag8KBXNO5V-149" style="edgeStyle=none;rounded=0;orthogonalLoop=1;jettySize=auto;html=1;dashed=1;endArrow=open;endFill=0;" parent="1" edge="1">
          <mxGeometry relative="1" as="geometry">
            <mxPoint x="354" y="470" as="sourcePoint" />
            <mxPoint x="206.5" y="470" as="targetPoint" />
          </mxGeometry>
        </mxCell>
        <mxCell id="_6644MWAA0ag8KBXNO5V-151" style="edgeStyle=none;rounded=0;orthogonalLoop=1;jettySize=auto;html=1;dashed=1;endArrow=open;endFill=0;" parent="1" edge="1">
          <mxGeometry relative="1" as="geometry">
            <mxPoint x="521.5" y="1054" as="sourcePoint" />
            <mxPoint x="374" y="1054" as="targetPoint" />
          </mxGeometry>
        </mxCell>
      </root>
    </mxGraphModel>
  </diagram>
</mxfile>
